<svg width="32" height="25" viewBox="0 0 32 25" fill="none" xmlns="http://www.w3.org/2000/svg">
<path d="M6.54545 25C5.41091 25 4.42182 24.408 3.94182 23.5528L0.145455 11.1069L0 10.528C0 10.1791 0.153246 9.84445 0.426026 9.59772C0.698807 9.35099 1.06878 9.21238 1.45455 9.21238H8.11636L14.8073 0.568651C14.9414 0.392191 15.1212 0.24811 15.3311 0.14899C15.5409 0.0498705 15.7744 -0.00127364 16.0111 2.40939e-05C16.2479 0.00132183 16.4806 0.0550219 16.6892 0.156435C16.8977 0.257848 17.0755 0.40389 17.2073 0.581808L23.8836 9.21238H30.5455C30.9312 9.21238 31.3012 9.35099 31.574 9.59772C31.8468 9.84445 32 10.1791 32 10.528L31.9418 10.9095L28.0582 23.5528C27.5782 24.408 26.5891 25 25.4545 25H6.54545ZM16 3.60777L11.6364 9.21238H20.3636L16 3.60777Z" fill="#00939E"/>
</svg>
